<svg id="visual" viewBox="0 0 900 600" width="900" height="600" xmlns="http://www.w3.org/2000/svg" xmlns:xlink="http://www.w3.org/1999/xlink" version="1.1"><rect x="0" y="0" width="900" height="600" fill="#001220"></rect><path d="M0 500L21.5 490.5C43 481 86 462 128.8 457C171.7 452 214.3 461 257.2 463.2C300 465.3 343 460.7 385.8 463.7C428.7 466.7 471.3 477.3 514.2 478.3C557 479.3 600 470.7 642.8 472C685.7 473.3 728.3 484.7 771.2 487C814 489.3 857 482.7 878.5 479.3L900 476L900 601L878.5 601C857 601 814 601 771.2 601C728.3 601 685.7 601 642.8 601C600 601 557 601 514.2 601C471.3 601 428.7 601 385.8 601C343 601 300 601 257.2 601C214.3 601 171.7 601 128.8 601C86 601 43 601 21.5 601L0 601Z" fill="#ea5851"></path><path d="M0 462L21.5 470.5C43 479 86 496 128.8 505.7C171.7 515.3 214.3 517.7 257.2 515.8C300 514 343 508 385.8 501.8C428.7 495.7 471.3 489.3 514.2 488C557 486.7 600 490.3 642.8 492.2C685.7 494 728.3 494 771.2 491.8C814 489.7 857 485.3 878.5 483.2L900 481L900 601L878.5 601C857 601 814 601 771.2 601C728.3 601 685.7 601 642.8 601C600 601 557 601 514.2 601C471.3 601 428.7 601 385.8 601C343 601 300 601 257.2 601C214.3 601 171.7 601 128.8 601C86 601 43 601 21.5 601L0 601Z" fill="#ec5244"></path><path d="M0 515L21.5 510.5C43 506 86 497 128.8 495.2C171.7 493.3 214.3 498.7 257.2 507.7C300 516.7 343 529.3 385.8 535.8C428.7 542.3 471.3 542.7 514.2 534.7C557 526.7 600 510.3 642.8 509.5C685.7 508.7 728.3 523.3 771.2 523.7C814 524 857 510 878.5 503L900 496L900 601L878.5 601C857 601 814 601 771.2 601C728.3 601 685.7 601 642.8 601C600 601 557 601 514.2 601C471.3 601 428.7 601 385.8 601C343 601 300 601 257.2 601C214.3 601 171.7 601 128.8 601C86 601 43 601 21.5 601L0 601Z" fill="#ee4d36"></path><path d="M0 518L21.5 519.5C43 521 86 524 128.8 529.5C171.7 535 214.3 543 257.2 547.2C300 551.3 343 551.7 385.8 552.3C428.7 553 471.3 554 514.2 551.7C557 549.3 600 543.7 642.8 539.2C685.7 534.7 728.3 531.3 771.2 531.2C814 531 857 534 878.5 535.5L900 537L900 601L878.5 601C857 601 814 601 771.2 601C728.3 601 685.7 601 642.8 601C600 601 557 601 514.2 601C471.3 601 428.7 601 385.8 601C343 601 300 601 257.2 601C214.3 601 171.7 601 128.8 601C86 601 43 601 21.5 601L0 601Z" fill="#ee4826"></path><path d="M0 591L21.5 586.8C43 582.7 86 574.3 128.8 569.5C171.7 564.7 214.3 563.3 257.2 562.8C300 562.3 343 562.7 385.8 565.3C428.7 568 471.3 573 514.2 572.3C557 571.7 600 565.3 642.8 563.8C685.7 562.3 728.3 565.7 771.2 565.7C814 565.7 857 562.3 878.5 560.7L900 559L900 601L878.5 601C857 601 814 601 771.2 601C728.3 601 685.7 601 642.8 601C600 601 557 601 514.2 601C471.3 601 428.7 601 385.8 601C343 601 300 601 257.2 601C214.3 601 171.7 601 128.8 601C86 601 43 601 21.5 601L0 601Z" fill="#ee4411"></path></svg>